<?xml version="1.0" encoding="UTF-8"?>
<svg
	width="20px"
	height="20px"
	version="1.1"
	xmlns="http://www.w3.org/2000/svg"
	xmlns:xlink="http://www.w3.org/1999/xlink"
>
	<!--generator: google drawings initially i think-->
	<title>Star Icon</title>
	<defs>
	</defs>
	<g>
	<path id="Star" stroke="#ff0000" stroke-width="3%" fill-rule="evenodd" fill="none" vector-effect="non-scaling-stroke" stroke-linejoin="miter" stroke-linecap="square" stroke-miterlimit="3" d=" M 171.45 12.708 L 181.581 239.551 L 294.114 262.183 L 344.906 159.246 L 171.45 12.708 Z  M 633.703 173.215 L 429.134 201.367 L 384.228 295.878 L 486.494 318.028 L 633.703 173.215 Z  M 478.55 637.292 L 468.419 410.449 L 355.886 387.817 L 305.094 490.754 L 478.55 637.292 Z  M 16.297 476.785 L 220.866 448.633 L 265.772 354.122 L 163.506 331.972 L 16.297 476.785 Z  M 289.108 342.649 C 279.368 322.838 287.543 298.845 307.352 289.104 C 327.162 279.363 351.152 287.539 360.892 307.351 C 370.632 327.162 362.457 351.155 342.648 360.896 C 322.838 370.637 298.848 362.461 289.108 342.649 Z " />
	</g>
</svg>